<svg width="3300" height="2200" viewBox="0 0 3300 2200" fill="none" xmlns="http://www.w3.org/2000/svg">
<g id="hare.fill 1" clip-path="url(#clip0_106_4248)">
<g id="Notes">
<path id="artboard" d="M3300 0H0V2200H3300V0Z" fill="white"/>
<path id="Vector" d="M263 292H3036" stroke="black" stroke-width="0.5"/>
<text id="Weight/Scale Variations" fill="black" xml:space="preserve" style="white-space: pre" font-family="Inter" font-size="13" font-weight="bold" letter-spacing="0em"><tspan x="263" y="321.727">Weight/Scale Variations</tspan></text>
<text id="Ultralight" fill="black" xml:space="preserve" style="white-space: pre" font-family="Inter" font-size="13" letter-spacing="0em"><tspan x="531.211" y="321.727">Ultralight</tspan></text>
<text id="Thin" fill="black" xml:space="preserve" style="white-space: pre" font-family="Inter" font-size="13" letter-spacing="0em"><tspan x="842.922" y="321.727">Thin</tspan></text>
<text id="Light" fill="black" xml:space="preserve" style="white-space: pre" font-family="Inter" font-size="13" letter-spacing="0em"><tspan x="1137.63" y="321.727">Light</tspan></text>
<text id="Regular" fill="black" xml:space="preserve" style="white-space: pre" font-family="Inter" font-size="13" letter-spacing="0em"><tspan x="1426.34" y="321.727">Regular</tspan></text>
<text id="Medium" fill="black" xml:space="preserve" style="white-space: pre" font-family="Inter" font-size="13" letter-spacing="0em"><tspan x="1721.56" y="321.727">Medium</tspan></text>
<text id="Semibold" fill="black" xml:space="preserve" style="white-space: pre" font-family="Inter" font-size="13" letter-spacing="0em"><tspan x="2014.27" y="321.727">Semibold</tspan></text>
<text id="Bold" fill="black" xml:space="preserve" style="white-space: pre" font-family="Inter" font-size="13" letter-spacing="0em"><tspan x="2325.98" y="321.727">Bold</tspan></text>
<text id="Heavy" fill="black" xml:space="preserve" style="white-space: pre" font-family="Inter" font-size="13" letter-spacing="0em"><tspan x="2617.19" y="321.727">Heavy</tspan></text>
<text id="Black" fill="black" xml:space="preserve" style="white-space: pre" font-family="Inter" font-size="13" letter-spacing="0em"><tspan x="2916.4" y="321.727">Black</tspan></text>
<path id="Vector_2" d="M263 1903H3036" stroke="black" stroke-width="0.5"/>
<g id="Group">
<path id="Vector_3" d="M272.248 1933.83C276.555 1933.83 280.139 1930.26 280.139 1925.95C280.139 1921.64 276.545 1918.07 272.238 1918.07C267.941 1918.07 264.367 1921.64 264.367 1925.95C264.367 1930.26 267.951 1933.83 272.248 1933.83ZM272.248 1932.35C268.703 1932.35 265.871 1929.5 265.871 1925.95C265.871 1922.39 268.693 1919.55 272.238 1919.55C275.793 1919.55 278.645 1922.39 278.645 1925.95C278.645 1929.5 275.803 1932.35 272.248 1932.35ZM268.654 1925.95C268.654 1926.38 268.957 1926.67 269.406 1926.67H271.506V1928.79C271.506 1929.23 271.799 1929.53 272.229 1929.53C272.678 1929.53 272.971 1929.23 272.971 1928.79V1926.67H275.09C275.529 1926.67 275.832 1926.38 275.832 1925.95C275.832 1925.51 275.529 1925.21 275.09 1925.21H272.971V1923.1C272.971 1922.65 272.678 1922.35 272.229 1922.35C271.799 1922.35 271.506 1922.65 271.506 1923.1V1925.21H269.406C268.957 1925.21 268.654 1925.51 268.654 1925.95Z" fill="black"/>
</g>
<g id="Group_2">
<path id="Vector_4" d="M293.215 1935.91C298.664 1935.91 303.176 1931.39 303.176 1925.95C303.176 1920.5 298.654 1915.99 293.205 1915.99C287.766 1915.99 283.254 1920.5 283.254 1925.95C283.254 1931.39 287.775 1935.91 293.215 1935.91ZM293.215 1934.25C288.605 1934.25 284.924 1930.56 284.924 1925.95C284.924 1921.34 288.596 1917.65 293.205 1917.65C297.814 1917.65 301.516 1921.34 301.516 1925.95C301.516 1930.56 297.824 1934.25 293.215 1934.25ZM288.684 1925.95C288.684 1926.43 289.016 1926.75 289.514 1926.75H292.385V1929.63C292.385 1930.12 292.717 1930.46 293.195 1930.46C293.684 1930.46 294.025 1930.13 294.025 1929.63V1926.75H296.906C297.395 1926.75 297.736 1926.43 297.736 1925.95C297.736 1925.46 297.395 1925.12 296.906 1925.12H294.025V1922.25C294.025 1921.75 293.684 1921.41 293.195 1921.41C292.717 1921.41 292.385 1921.75 292.385 1922.25V1925.12H289.514C289.016 1925.12 288.684 1925.46 288.684 1925.95Z" fill="black"/>
</g>
<g id="Group_3">
<path id="Vector_5" d="M319.895 1938.66C326.857 1938.66 332.619 1932.9 332.619 1925.95C332.619 1918.99 326.848 1913.22 319.885 1913.22C312.932 1913.22 307.18 1918.99 307.18 1925.95C307.18 1932.9 312.941 1938.66 319.895 1938.66ZM319.895 1936.85C313.859 1936.85 309.006 1931.98 309.006 1925.95C309.006 1919.9 313.85 1915.05 319.885 1915.05C325.93 1915.05 330.793 1919.9 330.793 1925.95C330.793 1931.98 325.939 1936.85 319.895 1936.85ZM314.123 1925.95C314.123 1926.47 314.494 1926.83 315.041 1926.83H318.986V1930.78C318.986 1931.32 319.357 1931.7 319.875 1931.7C320.412 1931.7 320.783 1931.33 320.783 1930.78V1926.83H324.738C325.275 1926.83 325.656 1926.47 325.656 1925.95C325.656 1925.4 325.285 1925.03 324.738 1925.03H320.783V1921.09C320.783 1920.54 320.412 1920.16 319.875 1920.16C319.357 1920.16 318.986 1920.54 318.986 1921.09V1925.03H315.041C314.494 1925.03 314.123 1925.4 314.123 1925.95Z" fill="black"/>
</g>
<text id="Design Variations" fill="black" xml:space="preserve" style="white-space: pre" font-family="Inter" font-size="13" font-weight="bold" letter-spacing="0em"><tspan x="263" y="1952.73">Design Variations</tspan></text>
<text id="Symbols are supported in up to nine weights and three scales." fill="black" xml:space="preserve" style="white-space: pre" font-family="Inter" font-size="13" letter-spacing="0em"><tspan x="263" y="1970.73">Symbols are supported in up to nine weights and three scales.</tspan></text>
<text id="For optimal layout with text and other symbols, vertically align" fill="black" xml:space="preserve" style="white-space: pre" font-family="Inter" font-size="13" letter-spacing="0em"><tspan x="263" y="1988.73">For optimal layout with text and other symbols, vertically align</tspan></text>
<text id="symbols with the adjacent text." fill="black" xml:space="preserve" style="white-space: pre" font-family="Inter" font-size="13" letter-spacing="0em"><tspan x="263" y="2006.73">symbols with the adjacent text.</tspan></text>
<path id="Vector_6" d="M776 1919V1933" stroke="#00AEEF" stroke-width="0.5"/>
<g id="Group_4">
<path id="Vector_7" d="M779.311 1933.16C779.828 1933.16 780.082 1932.96 780.268 1932.41L781.527 1928.97H787.289L788.549 1932.41C788.734 1932.96 788.988 1933.16 789.496 1933.16C790.014 1933.16 790.346 1932.84 790.346 1932.36C790.346 1932.19 790.316 1932.03 790.238 1931.83L785.658 1919.63C785.434 1919.04 785.033 1918.73 784.408 1918.73C783.803 1918.73 783.393 1919.03 783.178 1919.62L778.598 1931.84C778.52 1932.04 778.49 1932.2 778.49 1932.37C778.49 1932.85 778.803 1933.16 779.311 1933.16ZM782.006 1927.48L784.379 1920.91H784.428L786.801 1927.48H782.006Z" fill="black"/>
</g>
<path id="Vector_8" d="M792.836 1919V1933" stroke="#00AEEF" stroke-width="0.5"/>
<text id="Margins" fill="black" xml:space="preserve" style="white-space: pre" font-family="Inter" font-size="13" font-weight="bold" letter-spacing="0em"><tspan x="776" y="1952.73">Margins</tspan></text>
<text id="Leading and trailing margins on the left and right side of each symbol" fill="black" xml:space="preserve" style="white-space: pre" font-family="Inter" font-size="13" letter-spacing="0em"><tspan x="776" y="1970.73">Leading and trailing margins on the left and right side of each symbol</tspan></text>
<text id="can be adjusted by modifying the x-location of the margin guidelines." fill="black" xml:space="preserve" style="white-space: pre" font-family="Inter" font-size="13" letter-spacing="0em"><tspan x="776" y="1988.73">can be adjusted by modifying the x-location of the margin guidelines.</tspan></text>
<text id="Modifications are automatically applied proportionally to all" fill="black" xml:space="preserve" style="white-space: pre" font-family="Inter" font-size="13" letter-spacing="0em"><tspan x="776" y="2006.73">Modifications are automatically applied proportionally to all</tspan></text>
<text id="scales and weights." fill="black" xml:space="preserve" style="white-space: pre" font-family="Inter" font-size="13" letter-spacing="0em"><tspan x="776" y="2024.73">scales and weights.</tspan></text>
<g id="Group_5">
<path id="Vector_9" d="M1291.84 1934.87L1293.54 1936.57C1294.4 1937.44 1295.39 1937.38 1296.31 1936.36L1307.01 1924.57L1306.04 1923.6L1295.43 1935.28C1295.07 1935.68 1294.74 1935.77 1294.27 1935.3L1293.1 1934.14C1292.63 1933.68 1292.74 1933.34 1293.14 1932.98L1304.62 1922.18L1303.64 1921.21L1292.05 1932.1C1291.06 1933.02 1290.98 1934 1291.84 1934.87ZM1298.26 1916.67C1297.84 1917.08 1297.81 1917.66 1298.04 1918.05C1298.28 1918.41 1298.74 1918.64 1299.38 1918.48C1300.85 1918.14 1302.37 1918.08 1303.79 1919.02L1303.21 1920.47C1302.87 1921.3 1303.04 1921.89 1303.58 1922.43L1305.87 1924.75C1306.36 1925.24 1306.77 1925.26 1307.34 1925.16L1308.4 1924.96L1309.07 1925.64L1309.03 1926.19C1308.99 1926.69 1309.12 1927.07 1309.61 1927.55L1310.37 1928.29C1310.85 1928.77 1311.46 1928.8 1311.93 1928.33L1314.84 1925.41C1315.31 1924.94 1315.29 1924.35 1314.81 1923.87L1314.04 1923.11C1313.56 1922.63 1313.19 1922.47 1312.71 1922.51L1312.13 1922.56L1311.49 1921.93L1311.73 1920.8C1311.86 1920.24 1311.71 1919.8 1311.12 1919.21L1308.92 1917.02C1305.58 1913.7 1301.15 1913.78 1298.26 1916.67ZM1299.75 1917.04C1302.18 1915.27 1305.47 1915.57 1307.7 1917.79L1310.13 1920.21C1310.37 1920.44 1310.41 1920.63 1310.34 1920.97L1310.02 1922.45L1311.52 1923.94L1312.51 1923.88C1312.76 1923.87 1312.84 1923.89 1313.03 1924.08L1313.61 1924.66L1311.17 1927.1L1310.59 1926.53C1310.4 1926.33 1310.37 1926.25 1310.38 1925.99L1310.45 1925.01L1308.95 1923.53L1307.43 1923.78C1307.11 1923.85 1306.96 1923.82 1306.71 1923.59L1304.71 1921.58C1304.46 1921.35 1304.43 1921.18 1304.59 1920.81L1305.46 1918.72C1303.9 1917.27 1301.87 1916.64 1299.84 1917.24C1299.68 1917.28 1299.62 1917.15 1299.75 1917.04Z" fill="black"/>
</g>
<text id="Exporting" fill="black" xml:space="preserve" style="white-space: pre" font-family="Inter" font-size="13" font-weight="bold" letter-spacing="0em"><tspan x="1289" y="1952.73">Exporting</tspan></text>
<text id="Symbols should be outlined when exporting to ensure the" fill="black" xml:space="preserve" style="white-space: pre" font-family="Inter" font-size="13" letter-spacing="0em"><tspan x="1289" y="1970.73">Symbols should be outlined when exporting to ensure the</tspan></text>
<text id="design is preserved when submitting to Xcode." fill="black" xml:space="preserve" style="white-space: pre" font-family="Inter" font-size="13" letter-spacing="0em"><tspan x="1289" y="1988.73">design is preserved when submitting to Xcode.</tspan></text>
<text id="template-version" fill="black" xml:space="preserve" style="white-space: pre" font-family="Inter" font-size="13" letter-spacing="0em"><tspan x="2946" y="1932.73">Template v.5.0</tspan></text>
<text id="Requires Xcode 15 or greater" fill="black" xml:space="preserve" style="white-space: pre" font-family="Inter" font-size="13" letter-spacing="0em"><tspan x="2858" y="1950.73">Requires Xcode 15 or greater</tspan></text>
<text id="descriptive-name" fill="black" xml:space="preserve" style="white-space: pre" font-family="Inter" font-size="13" letter-spacing="0em"><tspan x="2890" y="1968.73">Generated from hare.fill</tspan></text>
<text id="Typeset at 100.0 points" fill="black" xml:space="preserve" style="white-space: pre" font-family="Inter" font-size="13" letter-spacing="0em"><tspan x="2892" y="1986.73">Typeset at 100.0 points</tspan></text>
<text id="Small" fill="black" xml:space="preserve" style="white-space: pre" font-family="Inter" font-size="13" letter-spacing="0em"><tspan x="263" y="725.727">Small</tspan></text>
<text id="Medium_2" fill="black" xml:space="preserve" style="white-space: pre" font-family="Inter" font-size="13" letter-spacing="0em"><tspan x="263" y="1155.73">Medium</tspan></text>
<text id="Large" fill="black" xml:space="preserve" style="white-space: pre" font-family="Inter" font-size="13" letter-spacing="0em"><tspan x="263" y="1585.73">Large</tspan></text>
</g>
<g id="Guides">
<g id="H-reference">
<path id="Vector_10" d="M339.994 696H342.638L368.329 628.868H369.031V625.541H367.123L339.994 696ZM350.689 671.52H385.982L385.232 669.272H351.439L350.689 671.52ZM394.12 696H396.764L369.639 625.541H368.433V628.868L394.12 696Z" fill="#27AAE1"/>
</g>
<path id="Baseline-S" d="M263 696H3036" stroke="#27AAE1" stroke-width="0.5"/>
<path id="Capline-S" d="M263 625.541H3036" stroke="#27AAE1" stroke-width="0.5"/>
<g id="H-reference_2">
<path id="Vector_11" d="M339.994 1126H342.638L368.329 1058.87H369.031V1055.54H367.123L339.994 1126ZM350.689 1101.52H385.982L385.232 1099.27H351.439L350.689 1101.52ZM394.12 1126H396.764L369.639 1055.54H368.433V1058.87L394.12 1126Z" fill="#27AAE1"/>
</g>
<path id="Baseline-M" d="M263 1126H3036" stroke="#27AAE1" stroke-width="0.5"/>
<path id="Capline-M" d="M263 1055.54H3036" stroke="#27AAE1" stroke-width="0.5"/>
<g id="H-reference_3">
<path id="Vector_12" d="M339.994 1556H342.638L368.329 1488.87H369.031V1485.54H367.123L339.994 1556ZM350.689 1531.52H385.982L385.232 1529.27H351.439L350.689 1531.52ZM394.12 1556H396.764L369.639 1485.54H368.433V1488.87L394.12 1556Z" fill="#27AAE1"/>
</g>
<path id="Baseline-L" d="M263 1556H3036" stroke="#27AAE1" stroke-width="0.5"/>
<path id="Capline-L" d="M263 1485.54H3036" stroke="#27AAE1" stroke-width="0.5"/>
<path id="left-margin-Ultralight-S" d="M493.853 600.785V720.121" stroke="#00AEEF" stroke-width="0.5"/>
<path id="right-margin-Ultralight-S" d="M625.569 600.785V720.121" stroke="#00AEEF" stroke-width="0.5"/>
<path id="left-margin-Regular-S" d="M1382.51 600.785V720.121" stroke="#00AEEF" stroke-width="0.5"/>
<path id="right-margin-Regular-S" d="M1517.18 600.785V720.121" stroke="#00AEEF" stroke-width="0.5"/>
<path id="left-margin-Black-S" d="M2860.79 600.785V720.121" stroke="#00AEEF" stroke-width="0.5"/>
<path id="right-margin-Black-S" d="M3006.01 600.785V720.121" stroke="#00AEEF" stroke-width="0.5"/>
</g>
<g id="Symbols">
<g id="Black-S">
<g id="Vector_13">
<mask id="path-55-inside-1_106_4248" fill="white">
<path d="M2970.54 658.161L2973.44 649.209V649.205L2977 638.217C2976.43 630.382 2974.02 621.516 2970.43 612C2960.7 622.974 2953.23 631.098 2947.47 637.047C2947 637.531 2946.54 638.002 2946.1 638.458C2944.67 639.921 2943.35 641.238 2942.14 642.423H2923.86C2922.65 641.238 2921.33 639.921 2919.9 638.458C2919.46 638.002 2919 637.531 2918.53 637.047C2912.77 631.098 2905.3 622.974 2895.57 612C2891.98 621.516 2889.57 630.382 2889 638.219L2892.56 649.207L2892.69 649.374L2895.58 658.279L2902.24 664.918L2889 683.062C2897.51 689.683 2906.81 695.03 2916.97 698.995C2917.78 699.178 2918.56 699.345 2919.33 699.492C2920.41 699.701 2921.46 699.881 2922.48 700.034C2923.76 700.226 2925.01 700.38 2926.23 700.505C2928.55 700.744 2930.78 700.886 2933 701C2935.21 700.886 2937.45 700.744 2939.77 700.505C2940.99 700.38 2942.24 700.226 2943.51 700.034H2943.51C2944.54 699.881 2945.59 699.701 2946.66 699.492C2947.44 699.345 2948.22 699.178 2949.02 698.995C2959.19 695.03 2968.49 689.683 2977 683.062L2963.75 664.918L2970.53 658.161H2970.54ZM2923.05 679.303L2910.56 672.106L2923.05 675.874L2926.03 681.02L2923.05 679.303ZM2934.06 690.112C2933.8 690.467 2933.4 690.645 2933 690.645C2932.6 690.645 2932.2 690.467 2931.94 690.112L2929.4 686.687L2930.28 685.85H2935.65L2936.6 686.687L2934.06 690.112ZM2942.95 679.303L2939.97 681.02L2942.95 675.874L2955.44 672.106L2942.95 679.303Z"/>
</mask>
<path d="M2970.54 658.161L2973.44 649.209V649.205L2977 638.217C2976.43 630.382 2974.02 621.516 2970.43 612C2960.7 622.974 2953.23 631.098 2947.47 637.047C2947 637.531 2946.54 638.002 2946.1 638.458C2944.67 639.921 2943.35 641.238 2942.14 642.423H2923.86C2922.65 641.238 2921.33 639.921 2919.9 638.458C2919.46 638.002 2919 637.531 2918.53 637.047C2912.77 631.098 2905.3 622.974 2895.57 612C2891.98 621.516 2889.57 630.382 2889 638.219L2892.56 649.207L2892.69 649.374L2895.58 658.279L2902.24 664.918L2889 683.062C2897.51 689.683 2906.81 695.03 2916.97 698.995C2917.78 699.178 2918.56 699.345 2919.33 699.492C2920.41 699.701 2921.46 699.881 2922.48 700.034C2923.76 700.226 2925.01 700.38 2926.23 700.505C2928.55 700.744 2930.78 700.886 2933 701C2935.21 700.886 2937.45 700.744 2939.77 700.505C2940.99 700.38 2942.24 700.226 2943.51 700.034H2943.51C2944.54 699.881 2945.59 699.701 2946.66 699.492C2947.44 699.345 2948.22 699.178 2949.02 698.995C2959.19 695.03 2968.49 689.683 2977 683.062L2963.75 664.918L2970.53 658.161H2970.54ZM2923.05 679.303L2910.56 672.106L2923.05 675.874L2926.03 681.02L2923.05 679.303ZM2934.06 690.112C2933.8 690.467 2933.4 690.645 2933 690.645C2932.6 690.645 2932.2 690.467 2931.94 690.112L2929.4 686.687L2930.28 685.85H2935.65L2936.6 686.687L2934.06 690.112ZM2942.95 679.303L2939.97 681.02L2942.95 675.874L2955.44 672.106L2942.95 679.303Z" stroke="black" stroke-width="2" mask="url(#path-55-inside-1_106_4248)"/>
</g>
</g>
<g id="Regular-S">
<g id="Vector_14">
<mask id="path-56-inside-2_106_4248" fill="white">
<path d="M1485.39 658.568L1488.12 650.119V650.115L1491.48 639.744C1490.95 632.35 1488.67 623.982 1485.29 615C1476.12 625.357 1469.07 633.025 1463.64 638.64C1463.2 639.097 1462.77 639.541 1462.35 639.971C1461 641.352 1459.76 642.596 1458.61 643.714H1441.39C1440.24 642.596 1439 641.352 1437.65 639.971C1437.23 639.541 1436.8 639.097 1436.36 638.64C1430.93 633.025 1423.88 625.357 1414.71 615C1411.33 623.982 1409.05 632.35 1408.52 639.746L1411.88 650.117L1412 650.274L1414.72 658.679L1421 664.945L1408.52 682.07C1416.54 688.318 1425.31 693.366 1434.89 697.108C1435.65 697.281 1436.39 697.438 1437.12 697.577C1438.13 697.774 1439.12 697.944 1440.09 698.088C1441.29 698.27 1442.46 698.415 1443.62 698.533C1445.8 698.758 1447.91 698.892 1450 699C1452.09 698.892 1454.19 698.758 1456.38 698.533C1457.53 698.415 1458.71 698.27 1459.91 698.088H1459.91C1460.88 697.944 1461.87 697.774 1462.88 697.577C1463.61 697.438 1464.35 697.281 1465.11 697.108C1474.69 693.366 1483.46 688.318 1491.48 682.07L1478.99 664.945L1485.39 658.568H1485.39ZM1440.62 678.522L1428.85 671.729L1440.62 675.286L1443.43 680.143L1440.62 678.522ZM1451 688.724C1450.75 689.059 1450.37 689.227 1450 689.227C1449.62 689.227 1449.25 689.059 1449 688.724L1446.6 685.491L1447.43 684.701H1452.5L1453.39 685.491L1451 688.724ZM1459.38 678.522L1456.57 680.143L1459.38 675.286L1471.15 671.729L1459.38 678.522Z"/>
</mask>
<path d="M1485.39 658.568L1488.12 650.119V650.115L1491.48 639.744C1490.95 632.35 1488.67 623.982 1485.29 615C1476.12 625.357 1469.07 633.025 1463.64 638.64C1463.2 639.097 1462.77 639.541 1462.35 639.971C1461 641.352 1459.76 642.596 1458.61 643.714H1441.39C1440.24 642.596 1439 641.352 1437.65 639.971C1437.23 639.541 1436.8 639.097 1436.36 638.64C1430.93 633.025 1423.88 625.357 1414.71 615C1411.33 623.982 1409.05 632.35 1408.52 639.746L1411.88 650.117L1412 650.274L1414.72 658.679L1421 664.945L1408.52 682.07C1416.54 688.318 1425.31 693.366 1434.89 697.108C1435.65 697.281 1436.39 697.438 1437.12 697.577C1438.13 697.774 1439.12 697.944 1440.09 698.088C1441.29 698.27 1442.46 698.415 1443.62 698.533C1445.8 698.758 1447.91 698.892 1450 699C1452.09 698.892 1454.19 698.758 1456.38 698.533C1457.53 698.415 1458.71 698.27 1459.91 698.088H1459.91C1460.88 697.944 1461.87 697.774 1462.88 697.577C1463.61 697.438 1464.35 697.281 1465.11 697.108C1474.69 693.366 1483.46 688.318 1491.48 682.07L1478.99 664.945L1485.39 658.568H1485.39ZM1440.62 678.522L1428.85 671.729L1440.62 675.286L1443.43 680.143L1440.62 678.522ZM1451 688.724C1450.75 689.059 1450.37 689.227 1450 689.227C1449.62 689.227 1449.25 689.059 1449 688.724L1446.6 685.491L1447.43 684.701H1452.5L1453.39 685.491L1451 688.724ZM1459.38 678.522L1456.57 680.143L1459.38 675.286L1471.15 671.729L1459.38 678.522Z" stroke="black" stroke-width="2" mask="url(#path-56-inside-2_106_4248)"/>
</g>
</g>
<g id="Ultralight-S">
<g id="Vector_15">
<mask id="path-57-inside-3_106_4248" fill="white">
<path d="M594.123 658.012L596.762 649.865V649.861L600 639.86C599.485 632.73 597.288 624.661 594.028 616C585.186 625.987 578.39 633.381 573.156 638.796C572.729 639.236 572.313 639.665 571.909 640.08C570.606 641.411 569.408 642.61 568.306 643.688H551.694C550.592 642.61 549.394 641.411 548.091 640.08C547.687 639.665 547.271 639.236 546.844 638.796C541.61 633.381 534.814 625.987 525.972 616C522.712 624.661 520.515 632.73 520 639.862L523.238 649.863L523.354 650.014L525.979 658.119L532.04 664.161L520 680.675C527.735 686.7 536.191 691.567 545.432 695.175C546.16 695.342 546.873 695.493 547.576 695.628C548.552 695.818 549.505 695.981 550.44 696.121C551.6 696.296 552.733 696.435 553.843 696.549C555.952 696.767 557.984 696.896 559.998 697C562.013 696.896 564.045 696.767 566.153 696.549C567.264 696.435 568.396 696.296 569.556 696.121H569.558C570.493 695.981 571.447 695.818 572.422 695.628C573.125 695.493 573.838 695.342 574.567 695.175C583.808 691.567 592.264 686.7 599.998 680.675L587.958 664.161L594.121 658.012H594.123ZM550.954 677.253L539.603 670.703L550.954 674.133L553.663 678.816L550.954 677.253ZM560.962 687.091C560.723 687.414 560.36 687.576 559.998 687.576C559.637 687.576 559.273 687.414 559.034 687.091L556.723 683.974L557.526 683.212H562.407L563.274 683.974L560.962 687.091ZM569.045 677.253L566.336 678.816L569.045 674.133L580.397 670.703L569.045 677.253Z"/>
</mask>
<path d="M594.123 658.012L596.762 649.865V649.861L600 639.86C599.485 632.73 597.288 624.661 594.028 616C585.186 625.987 578.39 633.381 573.156 638.796C572.729 639.236 572.313 639.665 571.909 640.08C570.606 641.411 569.408 642.61 568.306 643.688H551.694C550.592 642.61 549.394 641.411 548.091 640.08C547.687 639.665 547.271 639.236 546.844 638.796C541.61 633.381 534.814 625.987 525.972 616C522.712 624.661 520.515 632.73 520 639.862L523.238 649.863L523.354 650.014L525.979 658.119L532.04 664.161L520 680.675C527.735 686.7 536.191 691.567 545.432 695.175C546.16 695.342 546.873 695.493 547.576 695.628C548.552 695.818 549.505 695.981 550.44 696.121C551.6 696.296 552.733 696.435 553.843 696.549C555.952 696.767 557.984 696.896 559.998 697C562.013 696.896 564.045 696.767 566.153 696.549C567.264 696.435 568.396 696.296 569.556 696.121H569.558C570.493 695.981 571.447 695.818 572.422 695.628C573.125 695.493 573.838 695.342 574.567 695.175C583.808 691.567 592.264 686.7 599.998 680.675L587.958 664.161L594.121 658.012H594.123ZM550.954 677.253L539.603 670.703L550.954 674.133L553.663 678.816L550.954 677.253ZM560.962 687.091C560.723 687.414 560.36 687.576 559.998 687.576C559.637 687.576 559.273 687.414 559.034 687.091L556.723 683.974L557.526 683.212H562.407L563.274 683.974L560.962 687.091ZM569.045 677.253L566.336 678.816L569.045 674.133L580.397 670.703L569.045 677.253Z" stroke="black" stroke-width="2" mask="url(#path-57-inside-3_106_4248)"/>
</g>
</g>
</g>
</g>
<defs>
<clipPath id="clip0_106_4248">
<rect width="3300" height="2200" fill="white"/>
</clipPath>
</defs>
</svg>
