<svg width="23" height="23" viewBox="0 0 23 23" fill="none" xmlns="http://www.w3.org/2000/svg">
<g clip-path="url(#clip0_105_15)">
<path d="M18.7512 11.8173L19.312 10.1074V10.1067L20 8.0077C19.8905 6.51121 19.4236 4.81771 18.7309 3C16.852 5.09609 15.4078 6.6479 14.2956 7.78428C14.205 7.87672 14.1166 7.96666 14.0306 8.05375C13.7537 8.3332 13.4992 8.58482 13.265 8.81109H9.73497C9.50079 8.58482 9.24631 8.3332 8.96936 8.05375C8.88344 7.96666 8.79499 7.87672 8.70437 7.78428C7.5922 6.6479 6.14799 5.09609 4.26913 3C3.57638 4.81771 3.10948 6.51121 3 8.00806L3.68803 10.107L3.71268 10.1388L4.27058 11.8398L5.55856 13.1078L3 16.5737C4.64359 17.8382 6.44053 18.8597 8.40421 19.617C8.559 19.652 8.71053 19.6838 8.85988 19.712C9.06723 19.752 9.26987 19.7862 9.46853 19.8155C9.71503 19.8522 9.95573 19.8815 10.1917 19.9054C10.6398 19.9511 11.0715 19.9782 11.4996 20C11.9278 19.9782 12.3595 19.9511 12.8076 19.9054C13.0435 19.8815 13.2842 19.8522 13.5307 19.8155H13.5311C13.7298 19.7862 13.9324 19.752 14.1398 19.712C14.2891 19.6838 14.4406 19.652 14.5954 19.617C16.5591 18.8597 18.356 17.8382 19.9996 16.5737L17.4411 13.1078L18.7508 11.8173H18.7512ZM9.57764 15.8556L7.16554 14.4809L9.57764 15.2007L10.1533 16.1836L9.57764 15.8556ZM11.7045 17.9203C11.6537 17.9881 11.5765 18.022 11.4996 18.022C11.4228 18.022 11.3456 17.9881 11.2948 17.9203L10.8036 17.2661L10.9744 17.1062H12.0115L12.1956 17.2661L11.7045 17.9203ZM13.422 15.8556L12.8463 16.1836L13.422 15.2007L15.8345 14.4809L13.422 15.8556Z" fill="#FFFFD3"/>
</g>
<defs>
<clipPath id="clip0_105_15">
<rect width="17" height="17" fill="white" transform="translate(3 3)"/>
</clipPath>
</defs>
</svg>
