<svg width="207" height="140" viewBox="0 0 207 140" fill="none" xmlns="http://www.w3.org/2000/svg">
<path d="M103.159 140L78.1731 111.3L87.9737 98.339L103.159 106.08" fill="url(#paint0_linear_110_12)"/>
<path d="M103.159 23.3021L88.6051 29.7372C88.1108 29.2239 87.603 28.6953 87.0817 28.1514L103.16 8.06348" fill="url(#paint1_linear_110_12)"/>
<path d="M103.159 106.08L87.9754 98.339C89.1687 98.5726 90.3333 98.7738 91.4759 98.946H91.4776C92.896 99.1626 94.2789 99.3348 95.6365 99.4746C98.2127 99.744 100.696 99.9026 103.159 100.03" fill="url(#paint2_linear_110_12)"/>
<path d="M103.159 34.1944H93.0078C91.6604 32.8627 90.1979 31.3827 88.6051 29.7372L103.159 23.3021" fill="url(#paint3_linear_110_12)"/>
<path d="M103.159 91.3174V100.032C100.696 99.9043 98.2144 99.744 95.6365 99.4763L87.08 87.7383L92.7318 78.7831L95.6365 80.4763L99.1555 86.6232L101.981 90.4733C102.272 90.8723 102.717 91.0718 103.159 91.0718V91.3174Z" fill="#FBFBEB"/>
<path d="M103.159 85.6819V91.07C102.717 91.07 102.273 90.8705 101.981 90.4715L99.1555 86.6214L100.137 85.6802H103.159V85.6819Z" fill="#254A51"/>
<path d="M103.159 64.455V85.6819H100.137L99.1555 86.6231L95.6364 80.4762L92.7318 75.4052L103.159 64.455Z" fill="url(#paint4_linear_110_12)"/>
<path d="M103.159 35.8943V64.4549L90.0032 56.521L76.846 48.5837L91.095 35.8943H91.0967H103.159Z" fill="url(#paint5_linear_110_12)"/>
<path d="M103.159 34.1943V35.8943H91.0967L93.0077 34.1943H103.159Z" fill="#FBFBEB"/>
<path d="M103.159 64.455L92.7318 75.4052L90.0032 56.5211L103.159 64.455Z" fill="url(#paint6_linear_110_12)"/>
<path d="M78.1731 111.3L103.159 140H72.0388L70.5204 124.281L78.1731 111.3Z" fill="url(#paint7_linear_110_12)"/>
<path d="M87.0799 87.7383L95.6364 99.4763C94.2789 99.3348 92.8943 99.1626 91.4775 98.9478H91.4758L84.8067 95.3295L64.2897 83.0749L56.7065 79.8727L80.5665 71.6898L92.7318 78.7848L87.0799 87.74V87.7383Z" fill="url(#paint8_linear_110_12)"/>
<path d="M92.7318 75.4053L95.6365 80.4763L92.7318 78.7831L80.5665 71.6898L92.7318 75.4053Z" fill="#25434B"/>
<path d="M93.0078 34.1943L91.0984 35.896H91.0967L76.8477 48.5855L61.573 0C72.3791 12.3348 80.6851 21.4657 87.08 28.1514C87.6014 28.6953 88.1092 29.2239 88.6034 29.7372C90.1962 31.3809 91.6604 32.8626 93.0061 34.1943H93.0078Z" fill="url(#paint9_linear_110_12)"/>
<path d="M90.0032 56.5211L92.7318 75.4052L80.5665 71.6898L90.0032 56.5211Z" fill="#4FBAB7"/>
<path d="M84.805 95.3278L91.4741 98.946C90.3316 98.7738 89.167 98.5726 87.9737 98.3373C87.1155 98.1719 86.2438 97.9843 85.3534 97.778C74.0598 93.3209 63.726 87.3103 54.2724 79.8709L68.9886 59.4727L69.1138 59.6057L56.7048 79.8709L64.288 83.0731L84.805 95.3278Z" fill="#FBFBEB"/>
<path d="M87.9737 98.3372L78.1731 111.3L70.5205 124.281L66.282 118.911H51.5658L45.2098 109.228H34.3766L32.1423 113.692L38.715 121.276L40.8833 121.286L44.8188 125.546L53.5683 133.855H49.4483L45.8039 130.059L39.0874 123.061H36.3791L28.0206 113.811L32.965 107.408H45.7972L52.0364 116.897H66.8693L73.3117 114.239L85.3534 97.7814C86.2438 97.9877 87.1155 98.1735 87.9737 98.3406V98.3372Z" fill="#FBFBEB"/>
<path d="M85.3534 97.7796L73.3117 114.237L54.2741 79.8708C63.726 87.312 74.0615 93.3225 85.3551 97.7779L85.3534 97.7796Z" fill="url(#paint10_linear_110_12)"/>
<path d="M69.1155 59.6056L80.5665 71.6897L56.7065 79.8709L69.1155 59.6056Z" fill="url(#paint11_linear_110_12)"/>
<path d="M61.5729 0L76.846 48.5838L72.0388 55.2491L60.9839 33.1457L61.5729 0Z" fill="url(#paint12_linear_110_12)"/>
<path d="M54.2741 79.8708L73.3117 114.237L41.6535 86.6231L54.2741 79.8708Z" fill="url(#paint13_linear_110_12)"/>
<path d="M73.3117 114.237L66.8694 116.896H52.0364L45.7972 107.407H32.965L19.6013 92.383L41.6535 86.6232L73.3117 114.237Z" fill="url(#paint14_linear_110_12)"/>
<path d="M45.2081 109.228L40.8817 121.286H48.7594L51.5659 118.911L45.2081 109.228Z" fill="url(#paint15_linear_110_12)"/>
<path d="M48.7594 121.286L53.5666 133.853L72.0388 140L48.7594 121.286Z" fill="url(#paint16_linear_110_12)"/>
<path d="M60.9839 33.1458L72.0388 55.2491L70.3495 57.5885L58.2299 41.8214V41.8197L60.9839 33.1458Z" fill="url(#paint17_linear_110_12)"/>
<path d="M53.5666 133.853L44.8171 125.546L48.7594 121.286L53.5666 133.853Z" fill="url(#paint18_linear_110_12)"/>
<path d="M70.3495 57.5885L69.1155 59.6056L61.4562 51.8832L58.2299 41.8213L70.3495 57.5885Z" fill="#FBFBEB"/>
<path d="M68.9903 59.4726L54.2741 79.8709L25.0754 47.3782L58.2299 41.8196V41.8213L61.4562 51.8832L68.9903 59.4726Z" fill="url(#paint19_linear_110_12)"/>
<path d="M61.5729 0L60.9856 33.1457L58.2316 41.8196L54.2741 29.4695C54.9038 20.6609 57.5884 10.6962 61.5729 0Z" fill="#FBFBEB"/>
<path d="M25.0754 47.3783L54.2741 79.8709L41.6535 86.6232L25.0754 47.3783Z" fill="url(#paint20_linear_110_12)"/>
<path d="M48.7594 121.286L44.8171 125.546L40.8715 121.286H48.7594Z" fill="#25434B"/>
<path d="M39.0857 123.061L45.8023 130.059L20.6626 128.017L0 108.928L19.6012 92.3831L32.965 107.407L28.0189 113.81L36.3774 123.061H39.0857Z" fill="url(#paint21_linear_110_12)"/>
<path d="M45.2081 109.228L40.8816 121.286L38.7133 121.276L32.1406 113.692L34.3767 109.228H45.2081Z" fill="url(#paint22_linear_110_12)"/>
<path d="M72.0388 140L48.7594 121.286L51.5659 118.911H66.282L70.5205 124.281L72.0388 140Z" fill="url(#paint23_linear_110_12)"/>
<path d="M161.067 109.228L165.394 121.286H157.518L154.711 118.911L161.067 109.228Z" fill="url(#paint24_linear_110_12)"/>
<path d="M157.517 121.286L152.709 133.853L134.238 140L157.517 121.286Z" fill="url(#paint25_linear_110_12)"/>
<path d="M145.33 33.1473L134.277 55.2507L135.965 57.5918L148.084 41.823V41.8212L145.33 33.1473Z" fill="url(#paint26_linear_110_12)"/>
<path d="M152.709 133.853L161.46 125.546L157.518 121.286L152.709 133.853Z" fill="url(#paint27_linear_110_12)"/>
<path d="M161.067 109.228L165.394 121.286L167.562 121.276L174.135 113.692L171.9 109.228H161.067Z" fill="url(#paint28_linear_110_12)"/>
<path d="M134.238 140L157.517 121.286L154.711 118.911H139.993L135.755 124.281L134.238 140Z" fill="url(#paint29_linear_110_12)"/>
<path d="M103.159 140L128.143 111.3L118.342 98.339L103.159 106.08" fill="url(#paint30_linear_110_12)"/>
<path d="M103.159 23.3021L117.712 29.7372C118.207 29.2239 118.714 28.6953 119.236 28.1514L103.157 8.06348" fill="url(#paint31_linear_110_12)"/>
<path d="M103.159 106.08L118.342 98.339C117.149 98.5726 115.984 98.7738 114.842 98.946H114.84C113.421 99.1626 112.039 99.3348 110.681 99.4746C108.105 99.744 105.622 99.9026 103.159 100.03" fill="url(#paint32_linear_110_12)"/>
<path d="M103.159 34.1944H113.31C114.657 32.8627 116.12 31.3827 117.712 29.7372L103.159 23.3021" fill="url(#paint33_linear_110_12)"/>
<path d="M103.159 91.3174V100.032C105.622 99.9043 108.103 99.744 110.681 99.4763L119.238 87.7383L113.586 78.7831L110.681 80.4763L107.162 86.6232L104.337 90.4733C104.046 90.8723 103.601 91.0718 103.159 91.0718V91.3174Z" fill="#FBFBEB"/>
<path d="M103.159 85.6819V91.07C103.601 91.07 104.044 90.8705 104.337 90.4715L107.162 86.6214L106.18 85.6802H103.159V85.6819Z" fill="#254A51"/>
<path d="M103.159 64.455V85.6819H106.178L107.16 86.6231L110.679 80.4762L113.584 75.4052L103.159 64.455Z" fill="url(#paint34_linear_110_12)"/>
<path d="M103.159 35.8943V64.4549L116.313 56.521L129.47 48.5837L115.221 35.8943H115.219H103.159Z" fill="url(#paint35_linear_110_12)"/>
<path d="M103.159 34.1943V35.8943H115.219L113.308 34.1943H103.159Z" fill="#FBFBEB"/>
<path d="M103.159 64.455L113.584 75.4052L116.313 56.5211L103.159 64.455Z" fill="url(#paint36_linear_110_12)"/>
<path d="M128.143 111.3L103.159 140H134.277L135.795 124.281L128.143 111.3Z" fill="url(#paint37_linear_110_12)"/>
<path d="M119.236 87.7383L110.679 99.4763C112.037 99.3348 113.421 99.1626 114.838 98.9478H114.84L121.509 95.3295L142.026 83.0749L149.609 79.8727L125.749 71.6898L113.584 78.7848L119.236 87.74V87.7383Z" fill="url(#paint38_linear_110_12)"/>
<path d="M113.584 75.4053L110.679 80.4763L113.584 78.7831L125.749 71.6898L113.584 75.4053Z" fill="#25434B"/>
<path d="M113.308 34.1943L115.217 35.896H115.219L129.468 48.5855L144.743 0C133.937 12.3348 125.631 21.4657 119.236 28.1514C118.714 28.6953 118.207 29.2239 117.712 29.7372C116.12 31.3809 114.655 32.8626 113.31 34.1943H113.308Z" fill="url(#paint39_linear_110_12)"/>
<path d="M116.313 56.5211L113.584 75.4052L125.749 71.6898L116.313 56.5211Z" fill="#4FBAB7"/>
<path d="M121.511 95.3278L114.842 98.946C115.984 98.7738 117.149 98.5726 118.342 98.3373C119.2 98.1719 120.072 97.9843 120.962 97.778C132.256 93.3209 142.59 87.3103 152.043 79.8709L137.327 59.4727L137.202 59.6057L149.611 79.8709L142.028 83.0731L121.511 95.3278Z" fill="#FBFBEB"/>
<path d="M116.313 56.521L125.749 71.6897L137.2 59.6056L135.966 57.5919V57.5884L134.277 55.249L129.47 48.5837L116.313 56.521Z" fill="url(#paint40_linear_110_12)"/>
<path d="M90.0032 56.521L80.5665 71.6897L69.1155 59.6056L70.3495 57.5919V57.5884L72.0388 55.249L76.846 48.5837L90.0032 56.521Z" fill="url(#paint41_linear_110_12)"/>
<path d="M118.342 98.3372L128.143 111.3L135.795 124.281L140.034 118.911H154.75L161.106 109.228H171.939L174.173 113.692L167.601 121.276L165.432 121.286L161.497 125.546L152.748 133.855H156.868L160.512 130.059L167.228 123.061H169.937L178.295 113.811L173.351 107.408H160.519L154.279 116.897H139.446L133.004 114.239L120.962 97.7814C120.072 97.9877 119.2 98.1735 118.342 98.3406V98.3372Z" fill="#FBFBEB"/>
<path d="M120.962 97.7796L133.004 114.237L152.042 79.8708C142.59 87.312 132.254 93.3225 120.961 97.7779L120.962 97.7796Z" fill="url(#paint42_linear_110_12)"/>
<path d="M137.2 59.6056L125.749 71.6897L149.609 79.8709L137.2 59.6056Z" fill="url(#paint43_linear_110_12)"/>
<path d="M144.743 0L129.47 48.5838L134.277 55.2491L145.332 33.1457L144.743 0Z" fill="url(#paint44_linear_110_12)"/>
<path d="M152.042 79.8708L133.004 114.237L164.662 86.6231L152.042 79.8708Z" fill="url(#paint45_linear_110_12)"/>
<path d="M133.004 114.237L139.446 116.896H154.279L160.519 107.407H173.351L186.715 92.383L164.662 86.6232L133.004 114.237Z" fill="url(#paint46_linear_110_12)"/>
<path d="M135.966 57.5885L137.2 59.6056L144.86 51.8832L148.086 41.8213L135.966 57.5885Z" fill="#FBFBEB"/>
<path d="M137.326 59.4726L152.042 79.8709L181.24 47.3782L148.086 41.8196V41.8213L144.86 51.8832L137.326 59.4726Z" fill="url(#paint47_linear_110_12)"/>
<path d="M144.743 0L145.33 33.1457L148.084 41.8196L152.042 29.4695C151.412 20.6609 148.727 10.6962 144.743 0Z" fill="#FBFBEB"/>
<path d="M181.24 47.3783L152.042 79.8709L164.662 86.6232L181.24 47.3783Z" fill="url(#paint48_linear_110_12)"/>
<path d="M157.556 121.286L161.499 125.546L165.444 121.286H157.556Z" fill="#25434B"/>
<path d="M167.23 123.061L160.514 130.059L185.653 128.017L206.316 108.928L186.715 92.3831L173.351 107.407L178.297 113.81L169.938 123.061H167.23Z" fill="url(#paint49_linear_110_12)"/>
<path d="M49.753 81.0133V92.2892L44.697 84.2411L49.753 81.0133Z" fill="#FFB850"/>
<path d="M44.697 84.2411L49.753 92.2892L41.4656 94.2569L44.697 84.2411Z" fill="#E2B730"/>
<path d="M49.753 81.0133L44.6969 84.241L41.8346 73.0385L49.753 81.0133Z" fill="#FFE161"/>
<path d="M49.753 92.2892L41.8346 100.262L41.4656 94.2569L49.753 92.2892Z" fill="#FFB850"/>
<path d="M41.8347 73.0385L44.697 84.241L36.2386 78.0498L41.8347 73.0385Z" fill="#E2B730"/>
<path d="M44.6969 84.2411L41.4656 94.2569H36.2386H31.0116L27.7803 84.2411L36.2386 78.0498L44.6969 84.2411Z" fill="#FFD04D"/>
<path d="M41.4656 94.2568L41.8346 100.262L36.2386 94.2568H41.4656Z" fill="#E2B730"/>
<path d="M36.2386 94.2568L41.8346 100.262H30.6426L36.2386 94.2568Z" fill="#FFB850"/>
<path d="M41.8346 73.0385L36.2386 78.0498L30.6426 73.0385H41.8346Z" fill="#FFB850"/>
<path d="M36.2386 94.2568L30.6426 100.262L31.0116 94.2568H36.2386Z" fill="#E2B730"/>
<path d="M36.2386 78.0498L27.7803 84.241L30.6426 73.0385L36.2386 78.0498Z" fill="#E2B730"/>
<path d="M27.7803 84.2411L31.0116 94.2569L22.726 92.2892L27.7803 84.2411Z" fill="#E2B730"/>
<path d="M31.0116 94.2569L30.6426 100.262L22.726 92.2892L31.0116 94.2569Z" fill="#FFB850"/>
<path d="M30.6426 73.0385L27.7803 84.241L22.726 81.0133L30.6426 73.0385Z" fill="#FFB850"/>
<path d="M27.7803 84.2411L22.726 92.2892V81.0133L27.7803 84.2411Z" fill="#FFE161"/>
<path d="M187.904 78.7676L178.488 87.1533L175.216 82.9281V82.9212L187.904 78.7676Z" fill="#FFD04D"/>
<path d="M187.904 78.7676L175.216 82.9213L175.394 77.5604L187.904 78.7676Z" fill="#FFE161"/>
<path d="M178.488 87.1533L181.213 99.5137L173.376 88.6453L178.488 87.1533Z" fill="#FFE161"/>
<path d="M173.376 88.6454L181.213 99.5138L170.387 93.0821L173.371 88.6471L173.376 88.6454Z" fill="#FFD04D"/>
<path d="M175.216 82.9281L178.488 87.1534L173.376 88.6453L173.373 88.6419L175.216 82.9281Z" fill="#FFB850"/>
<path d="M170.387 65.9469L175.394 77.5604L170.387 79.3934V65.9469Z" fill="#FFD04D"/>
<path d="M175.394 77.5604L175.216 82.9213L175.209 82.923L170.387 79.3934L175.394 77.5604Z" fill="#FFB850"/>
<path d="M175.216 82.9281L173.373 88.6419L170.387 84.5019L175.209 82.923L175.216 82.9281Z" fill="#FFD04D"/>
<path d="M175.209 82.923L170.387 84.5019V79.3934L175.209 82.923Z" fill="#FFD04D"/>
<path d="M170.387 84.502L173.373 88.642L173.371 88.6471H167.401L167.399 88.6437L170.387 84.502Z" fill="#FFD04D"/>
<path d="M173.371 88.6471L170.387 93.0821L167.401 88.6471H173.371Z" fill="#FFB850"/>
<path d="M170.387 79.3934V84.5019L165.563 82.923L170.387 79.3934Z" fill="#FFD04D"/>
<path d="M170.387 65.9469V79.3934L165.38 77.5604L170.387 65.9469Z" fill="#FFE161"/>
<path d="M170.387 84.5019L167.399 88.6436L165.556 82.9281L165.563 82.923L170.387 84.5019Z" fill="#FFD04D"/>
<path d="M167.401 88.6471L170.387 93.0821L159.559 99.5138L167.398 88.6454L167.401 88.6471Z" fill="#FFE161"/>
<path d="M170.387 79.3934L165.563 82.923L165.556 82.9213L165.38 77.5604L170.387 79.3934Z" fill="#FFB850"/>
<path d="M165.556 82.9281L167.399 88.6436L167.398 88.6453L162.286 87.1534L165.556 82.9281Z" fill="#FFB850"/>
<path d="M167.398 88.6453L159.559 99.5137L162.286 87.1533L167.398 88.6453Z" fill="#FFD04D"/>
<path d="M165.556 82.9213L152.868 78.7676L165.38 77.5604L165.556 82.9213Z" fill="#FFD04D"/>
<path d="M152.868 78.7676L165.556 82.9212V82.9281L162.286 87.1533L152.868 78.7676Z" fill="#FFE161"/>
<defs>
<linearGradient id="paint0_linear_110_12" x1="98.966" y1="101.623" x2="83.681" y2="145.225" gradientUnits="userSpaceOnUse">
<stop offset="0.13" stop-color="#7CC6BC"/>
<stop offset="0.83" stop-color="#4097A5"/>
</linearGradient>
<linearGradient id="paint1_linear_110_12" x1="95.1185" y1="9.0064" x2="95.1185" y2="24.6696" gradientUnits="userSpaceOnUse">
<stop offset="0.09" stop-color="#FBFBEB"/>
<stop offset="1" stop-color="#7CC6BC"/>
</linearGradient>
<linearGradient id="paint2_linear_110_12" x1="95.4554" y1="102.484" x2="97.9168" y2="96.4606" gradientUnits="userSpaceOnUse">
<stop offset="0.09" stop-color="#4B9BA7"/>
<stop offset="1" stop-color="#25434B"/>
</linearGradient>
<linearGradient id="paint3_linear_110_12" x1="94.9103" y1="24.1103" x2="104.681" y2="48.0225" gradientUnits="userSpaceOnUse">
<stop offset="0.14" stop-color="#4B9BA7"/>
<stop offset="0.83" stop-color="#25434B"/>
</linearGradient>
<linearGradient id="paint4_linear_110_12" x1="97.9453" y1="62.0184" x2="97.9453" y2="91.3122" gradientUnits="userSpaceOnUse">
<stop offset="0.19" stop-color="#FBFBEB"/>
<stop offset="0.91" stop-color="#76C4BB"/>
</linearGradient>
<linearGradient id="paint5_linear_110_12" x1="88.9538" y1="39.0641" x2="95.9806" y2="60.0403" gradientUnits="userSpaceOnUse">
<stop offset="0.09" stop-color="#4097A5"/>
<stop offset="1" stop-color="#7CC6BC"/>
</linearGradient>
<linearGradient id="paint6_linear_110_12" x1="100.149" y1="71.4016" x2="89.6248" y2="64.4748" gradientUnits="userSpaceOnUse">
<stop stop-color="#4FBAB7"/>
<stop offset="0.3" stop-color="#61BEB9"/>
<stop offset="0.71" stop-color="#74C4BB"/>
<stop offset="1" stop-color="#7CC6BC"/>
</linearGradient>
<linearGradient id="paint7_linear_110_12" x1="70.5204" y1="125.65" x2="103.159" y2="125.65" gradientUnits="userSpaceOnUse">
<stop offset="0.09" stop-color="#4097A5"/>
<stop offset="1" stop-color="#4FBAB7"/>
</linearGradient>
<linearGradient id="paint8_linear_110_12" x1="76.1706" y1="99.4763" x2="76.1706" y2="71.6898" gradientUnits="userSpaceOnUse">
<stop stop-color="#4FBAB7"/>
<stop offset="0.3" stop-color="#61BEB9"/>
<stop offset="0.71" stop-color="#74C4BB"/>
<stop offset="1" stop-color="#7CC6BC"/>
</linearGradient>
<linearGradient id="paint9_linear_110_12" x1="77.0509" y1="17.4791" x2="66.5826" y2="34.0128" gradientUnits="userSpaceOnUse">
<stop offset="0.09" stop-color="#FBFBEB"/>
<stop offset="1" stop-color="#7CC6BC"/>
</linearGradient>
<linearGradient id="paint10_linear_110_12" x1="55.5402" y1="78.8137" x2="80.2301" y2="106.624" gradientUnits="userSpaceOnUse">
<stop offset="0.09" stop-color="#4B9BA7"/>
<stop offset="1" stop-color="#25434B"/>
</linearGradient>
<linearGradient id="paint11_linear_110_12" x1="55.2051" y1="77.3047" x2="76.5468" y2="64.8183" gradientUnits="userSpaceOnUse">
<stop offset="0.09" stop-color="#4097A5"/>
<stop offset="1" stop-color="#4FBAB7"/>
</linearGradient>
<linearGradient id="paint12_linear_110_12" x1="71.1586" y1="57.701" x2="63.7524" y2="2.92492" gradientUnits="userSpaceOnUse">
<stop offset="0.09" stop-color="#4B9BA7"/>
<stop offset="0.56" stop-color="#25434B"/>
</linearGradient>
<linearGradient id="paint13_linear_110_12" x1="76.7986" y1="100.373" x2="40.4927" y2="91.2426" gradientUnits="userSpaceOnUse">
<stop offset="0.09" stop-color="#44808D"/>
<stop offset="0.74" stop-color="#4FBAB7"/>
</linearGradient>
<linearGradient id="paint14_linear_110_12" x1="74.8148" y1="108.897" x2="39.4644" y2="100.007" gradientUnits="userSpaceOnUse">
<stop offset="0.09" stop-color="#4097A5"/>
<stop offset="1" stop-color="#7CC6BC"/>
</linearGradient>
<linearGradient id="paint15_linear_110_12" x1="40.8817" y1="115.257" x2="51.5659" y2="115.257" gradientUnits="userSpaceOnUse">
<stop offset="0.09" stop-color="#4097A5"/>
<stop offset="1" stop-color="#4FBAB7"/>
</linearGradient>
<linearGradient id="paint16_linear_110_12" x1="64.9634" y1="141.236" x2="53.291" y2="118.298" gradientUnits="userSpaceOnUse">
<stop offset="0.09" stop-color="#4097A5"/>
<stop offset="1" stop-color="#4FBAB7"/>
</linearGradient>
<linearGradient id="paint17_linear_110_12" x1="58.2299" y1="45.368" x2="72.0388" y2="45.368" gradientUnits="userSpaceOnUse">
<stop offset="0.09" stop-color="#4097A5"/>
<stop offset="1" stop-color="#4FBAB7"/>
</linearGradient>
<linearGradient id="paint18_linear_110_12" x1="55.4116" y1="129.853" x2="43.0101" y2="123.287" gradientUnits="userSpaceOnUse">
<stop offset="0.22" stop-color="#44808D"/>
<stop offset="0.91" stop-color="#4FBAB7"/>
</linearGradient>
<linearGradient id="paint19_linear_110_12" x1="33.9789" y1="38.4094" x2="64.931" y2="69.1358" gradientUnits="userSpaceOnUse">
<stop offset="0.09" stop-color="#4097A5"/>
<stop offset="1" stop-color="#7CC6BC"/>
</linearGradient>
<linearGradient id="paint20_linear_110_12" x1="29.9181" y1="69.4169" x2="43.1537" y2="61.6751" gradientUnits="userSpaceOnUse">
<stop offset="0.09" stop-color="#FBFBEB"/>
<stop offset="1" stop-color="#7CC6BC"/>
</linearGradient>
<linearGradient id="paint21_linear_110_12" x1="1.09516" y1="117.15" x2="46.1475" y2="108.823" gradientUnits="userSpaceOnUse">
<stop offset="0.04" stop-color="#4BACBB"/>
<stop offset="0.49" stop-color="#44808D"/>
</linearGradient>
<linearGradient id="paint22_linear_110_12" x1="38.5525" y1="103.92" x2="38.9544" y2="128.245" gradientUnits="userSpaceOnUse">
<stop stop-color="#FBFBEB"/>
<stop offset="0.03" stop-color="#F2F7E7"/>
<stop offset="0.19" stop-color="#BDE1D4"/>
<stop offset="0.34" stop-color="#96D1C6"/>
<stop offset="0.45" stop-color="#7EC7BE"/>
<stop offset="0.52" stop-color="#76C4BB"/>
</linearGradient>
<linearGradient id="paint23_linear_110_12" x1="48.7594" y1="129.456" x2="72.0388" y2="129.456" gradientUnits="userSpaceOnUse">
<stop offset="0.13" stop-color="#7CC6BC"/>
<stop offset="0.83" stop-color="#4FBAB7"/>
</linearGradient>
<linearGradient id="paint24_linear_110_12" x1="165.394" y1="115.257" x2="154.709" y2="115.257" gradientUnits="userSpaceOnUse">
<stop offset="0.09" stop-color="#4097A5"/>
<stop offset="1" stop-color="#4FBAB7"/>
</linearGradient>
<linearGradient id="paint25_linear_110_12" x1="141.312" y1="141.236" x2="152.984" y2="118.298" gradientUnits="userSpaceOnUse">
<stop offset="0.09" stop-color="#4097A5"/>
<stop offset="1" stop-color="#4FBAB7"/>
</linearGradient>
<linearGradient id="paint26_linear_110_12" x1="148.084" y1="45.3696" x2="134.275" y2="45.3696" gradientUnits="userSpaceOnUse">
<stop offset="0.09" stop-color="#4097A5"/>
<stop offset="1" stop-color="#4FBAB7"/>
</linearGradient>
<linearGradient id="paint27_linear_110_12" x1="150.864" y1="129.853" x2="163.265" y2="123.287" gradientUnits="userSpaceOnUse">
<stop offset="0.22" stop-color="#44808D"/>
<stop offset="0.91" stop-color="#4FBAB7"/>
</linearGradient>
<linearGradient id="paint28_linear_110_12" x1="167.723" y1="103.92" x2="167.321" y2="128.245" gradientUnits="userSpaceOnUse">
<stop stop-color="#FBFBEB"/>
<stop offset="0.03" stop-color="#F2F7E7"/>
<stop offset="0.19" stop-color="#BDE1D4"/>
<stop offset="0.34" stop-color="#96D1C6"/>
<stop offset="0.45" stop-color="#7EC7BE"/>
<stop offset="0.52" stop-color="#76C4BB"/>
</linearGradient>
<linearGradient id="paint29_linear_110_12" x1="157.516" y1="129.456" x2="134.238" y2="129.456" gradientUnits="userSpaceOnUse">
<stop offset="0.13" stop-color="#7CC6BC"/>
<stop offset="0.83" stop-color="#4FBAB7"/>
</linearGradient>
<linearGradient id="paint30_linear_110_12" x1="119.608" y1="98.8573" x2="102.852" y2="139.874" gradientUnits="userSpaceOnUse">
<stop offset="0.13" stop-color="#7CC6BC"/>
<stop offset="0.83" stop-color="#4097A5"/>
</linearGradient>
<linearGradient id="paint31_linear_110_12" x1="111.196" y1="9.0064" x2="111.196" y2="24.6696" gradientUnits="userSpaceOnUse">
<stop offset="0.09" stop-color="#FBFBEB"/>
<stop offset="1" stop-color="#7CC6BC"/>
</linearGradient>
<linearGradient id="paint32_linear_110_12" x1="110.859" y1="102.484" x2="108.399" y2="96.4606" gradientUnits="userSpaceOnUse">
<stop offset="0.09" stop-color="#4B9BA7"/>
<stop offset="1" stop-color="#25434B"/>
</linearGradient>
<linearGradient id="paint33_linear_110_12" x1="111.405" y1="24.1103" x2="101.635" y2="48.0225" gradientUnits="userSpaceOnUse">
<stop offset="0.14" stop-color="#4B9BA7"/>
<stop offset="0.83" stop-color="#25434B"/>
</linearGradient>
<linearGradient id="paint34_linear_110_12" x1="108.371" y1="62.0184" x2="108.371" y2="91.3122" gradientUnits="userSpaceOnUse">
<stop offset="0.19" stop-color="#FBFBEB"/>
<stop offset="0.91" stop-color="#76C4BB"/>
</linearGradient>
<linearGradient id="paint35_linear_110_12" x1="118.941" y1="39.5927" x2="103.287" y2="55.1328" gradientUnits="userSpaceOnUse">
<stop offset="0.09" stop-color="#4097A5"/>
<stop offset="1" stop-color="#7CC6BC"/>
</linearGradient>
<linearGradient id="paint36_linear_110_12" x1="106.167" y1="71.4016" x2="116.691" y2="64.4748" gradientUnits="userSpaceOnUse">
<stop stop-color="#4FBAB7"/>
<stop offset="0.3" stop-color="#61BEB9"/>
<stop offset="0.71" stop-color="#74C4BB"/>
<stop offset="1" stop-color="#7CC6BC"/>
</linearGradient>
<linearGradient id="paint37_linear_110_12" x1="135.795" y1="125.65" x2="103.157" y2="125.65" gradientUnits="userSpaceOnUse">
<stop offset="0.09" stop-color="#4097A5"/>
<stop offset="1" stop-color="#4FBAB7"/>
</linearGradient>
<linearGradient id="paint38_linear_110_12" x1="130.143" y1="99.4763" x2="130.143" y2="71.6898" gradientUnits="userSpaceOnUse">
<stop stop-color="#4FBAB7"/>
<stop offset="0.3" stop-color="#61BEB9"/>
<stop offset="0.71" stop-color="#74C4BB"/>
<stop offset="1" stop-color="#7CC6BC"/>
</linearGradient>
<linearGradient id="paint39_linear_110_12" x1="129.263" y1="17.4791" x2="139.733" y2="34.0128" gradientUnits="userSpaceOnUse">
<stop offset="0.09" stop-color="#FBFBEB"/>
<stop offset="1" stop-color="#7CC6BC"/>
</linearGradient>
<linearGradient id="paint40_linear_110_12" x1="112.25" y1="61.737" x2="151.84" y2="57.6716" gradientUnits="userSpaceOnUse">
<stop offset="0.33" stop-color="#4097A5"/>
<stop offset="1" stop-color="#4FBAB7"/>
</linearGradient>
<linearGradient id="paint41_linear_110_12" x1="94.0656" y1="61.737" x2="54.4745" y2="57.6716" gradientUnits="userSpaceOnUse">
<stop offset="0.33" stop-color="#4097A5"/>
<stop offset="1" stop-color="#4FBAB7"/>
</linearGradient>
<linearGradient id="paint42_linear_110_12" x1="150.776" y1="78.8137" x2="126.086" y2="106.624" gradientUnits="userSpaceOnUse">
<stop offset="0.09" stop-color="#4B9BA7"/>
<stop offset="1" stop-color="#25434B"/>
</linearGradient>
<linearGradient id="paint43_linear_110_12" x1="151.111" y1="77.3047" x2="129.767" y2="64.8184" gradientUnits="userSpaceOnUse">
<stop offset="0.09" stop-color="#4097A5"/>
<stop offset="1" stop-color="#4FBAB7"/>
</linearGradient>
<linearGradient id="paint44_linear_110_12" x1="135.157" y1="57.701" x2="142.562" y2="2.92491" gradientUnits="userSpaceOnUse">
<stop offset="0.09" stop-color="#4B9BA7"/>
<stop offset="0.56" stop-color="#25434B"/>
</linearGradient>
<linearGradient id="paint45_linear_110_12" x1="129.517" y1="100.373" x2="165.823" y2="91.2426" gradientUnits="userSpaceOnUse">
<stop offset="0.09" stop-color="#44808D"/>
<stop offset="0.74" stop-color="#4FBAB7"/>
</linearGradient>
<linearGradient id="paint46_linear_110_12" x1="131.501" y1="108.897" x2="166.85" y2="100.007" gradientUnits="userSpaceOnUse">
<stop offset="0.09" stop-color="#4097A5"/>
<stop offset="1" stop-color="#7CC6BC"/>
</linearGradient>
<linearGradient id="paint47_linear_110_12" x1="172.335" y1="38.4094" x2="141.383" y2="69.1358" gradientUnits="userSpaceOnUse">
<stop offset="0.09" stop-color="#4097A5"/>
<stop offset="1" stop-color="#7CC6BC"/>
</linearGradient>
<linearGradient id="paint48_linear_110_12" x1="176.398" y1="69.4169" x2="163.162" y2="61.6751" gradientUnits="userSpaceOnUse">
<stop offset="0.09" stop-color="#FBFBEB"/>
<stop offset="1" stop-color="#7CC6BC"/>
</linearGradient>
<linearGradient id="paint49_linear_110_12" x1="205.219" y1="117.15" x2="160.168" y2="108.823" gradientUnits="userSpaceOnUse">
<stop offset="0.04" stop-color="#4BACBB"/>
<stop offset="0.49" stop-color="#44808D"/>
</linearGradient>
</defs>
</svg>
