<svg width="61" height="30" viewBox="0 0 61 30" fill="none" xmlns="http://www.w3.org/2000/svg">
<path d="M42.3905 12.3437L48.0001 21.2133L38.8039 23.3821L42.3905 12.3437Z" fill="#FF8D8D"/>
<path d="M48.0001 21.2133L39.2134 29.9999L38.8039 23.3822L48.0001 21.2133Z" fill="#FFAA9E"/>
<path d="M39.213 0.000488281L42.3901 12.3439L32.9999 5.52219L39.213 0.000488281Z" fill="#FF8D8D"/>
<path d="M42.3899 12.3438L38.8033 23.3822H32.9997H27.1961L23.6095 12.3438L32.9997 5.52209L42.3899 12.3438Z" fill="#FFB2B2"/>
<path d="M38.8035 23.3824L39.213 30.0002L32.9999 23.3824H38.8035Z" fill="#FF8D8D"/>
<path d="M32.9997 23.3824L39.2129 30.0002H26.7866L32.9997 23.3824Z" fill="#FFAA9E"/>
<path d="M39.2129 0.000488281L32.9997 5.52219L26.7866 0.000488281H39.2129Z" fill="#FFAA9E"/>
<path d="M32.9997 23.3824L26.7866 30.0002L27.1961 23.3824H32.9997Z" fill="#FF8D8D"/>
<path d="M32.9997 5.52219L23.6095 12.3439L26.7865 0.000488281L32.9997 5.52219Z" fill="#FF8D8D"/>
<path d="M23.6096 12.3437L27.1962 23.3821L18 21.2133L23.6096 12.3437Z" fill="#FF8D8D"/>
<path d="M27.1962 23.3822L26.7866 29.9999L18 21.2133L27.1962 23.3822Z" fill="#FFAA9E"/>
<path d="M26.7866 0L23.6096 12.3434L18 8.78664L26.7866 0Z" fill="#FFAA9E"/>
<path d="M39.2129 0L42.39 12.3434L47.9996 8.78664L39.2129 0Z" fill="#FFAA9E"/>
<path d="M23.6096 12.3442L18 21.2138V8.78745L23.6096 12.3442Z" fill="#FFD8D8"/>
<path d="M42.3903 12.3439L47.9999 21.2134V8.78708L42.3903 12.3439Z" fill="#FFD8D8"/>
<path d="M23 20H8.5H0L6 15L12 16.5L16.5385 12L23 20Z" fill="white"/>
<path d="M34 26L43.1216 17L51.5135 26L56.6216 21.6957L61 26H51.5135H34Z" fill="white"/>
</svg>
