<svg width="52" height="53" viewBox="0 0 52 53" fill="none" xmlns="http://www.w3.org/2000/svg">
<path d="M48.118 0C42.3709 6.53487 37.9533 11.3729 34.5513 14.9157C34.2741 15.2039 34.0036 15.4843 33.7408 15.7558C32.8936 16.627 32.1152 17.4115 31.3989 18.1169H20.6011C19.8848 17.4115 19.1064 16.627 18.2592 15.7558C17.9964 15.4843 17.7259 15.2039 17.4487 14.9157C14.0467 11.3729 9.62914 6.53487 3.88204 0C1.76305 5.66697 0.334869 10.9467 0 15.6134L2.10457 22.1571L2.17997 22.2562L3.88647 27.5593L7.82617 31.5127L0 42.3181C5.02747 46.2604 10.524 49.4449 16.5305 51.8061C17.004 51.9151 17.4675 52.0142 17.9243 52.1021C18.5586 52.2267 19.1784 52.3335 19.7861 52.4247C20.5401 52.5393 21.2764 52.6306 21.9982 52.7051C23.3687 52.8476 24.6894 52.9321 25.9989 53C27.3084 52.9321 28.6291 52.8476 29.9996 52.7051C30.7214 52.6306 31.4577 52.5393 32.2117 52.4247H32.2128C32.8205 52.3335 33.4403 52.2267 34.0745 52.1021C34.5314 52.0142 34.9949 51.9151 35.4684 51.8061C41.4749 49.4449 46.9714 46.2604 51.9989 42.3181L44.1727 31.5127L48.179 27.4892L49.8943 22.1583V22.156L51.9989 15.6123C51.6651 10.9467 50.237 5.66697 48.118 0Z" fill="#FBFBEB"/>
</svg>
