<svg width="16" height="17" viewBox="0 0 16 17" fill="none" xmlns="http://www.w3.org/2000/svg">
<path d="M14.5867 8.75137L15.0944 7.17013L15.0944 7.16948L15.7174 5.22849C15.6078 3.84806 15.1672 2.28786 14.5175 0.614322C12.7955 2.55948 11.4716 3.99986 10.4517 5.05495C10.3686 5.14078 10.2875 5.22429 10.2087 5.30514C9.95472 5.56463 9.72131 5.79829 9.50649 6.00846L6.24872 6.02866C6.03131 5.82118 5.79502 5.59042 5.53783 5.33411C5.45805 5.25423 5.3759 5.17174 5.29174 5.08695C4.25886 4.04459 2.91716 2.62074 1.17123 0.697083C0.542325 2.37854 0.121126 3.94409 0.0286598 5.32611L0.675633 7.25922L0.698564 7.28839L1.22316 8.85499L2.41905 10.0179L0.0776789 13.2311C1.60173 14.3886 3.2659 15.321 5.08245 16.0087C5.2255 16.0401 5.36552 16.0685 5.50352 16.0937C5.6951 16.1294 5.88231 16.1599 6.06581 16.1857C6.29351 16.2183 6.51581 16.2439 6.73373 16.2646C7.14749 16.3042 7.54608 16.3268 7.9413 16.3444C8.33627 16.3219 8.73456 16.2944 9.14779 16.2496C9.36544 16.2262 9.58741 16.1978 9.81469 16.1625L9.81502 16.1625C9.99819 16.1344 10.185 16.1016 10.3761 16.0635C10.5138 16.0366 10.6535 16.0064 10.7961 15.9733C12.604 15.2631 14.2565 14.3102 15.766 13.1338L13.385 9.94988L14.5863 8.75137L14.5867 8.75137ZM6.14384 12.5307L3.90993 11.2758L6.14009 11.9263L6.67697 12.8301L6.14384 12.5307ZM8.11842 14.424C8.07197 14.4868 8.00091 14.5186 7.92998 14.519C7.85906 14.5195 7.78761 14.4886 7.74039 14.4263L7.28334 13.8254L7.43999 13.6769L8.39712 13.6709L8.56798 13.8174L8.11842 14.424ZM9.69167 12.5087L9.16229 12.8147L9.68792 11.9043L11.9102 11.2262L9.69167 12.5087Z" fill="white"/>
</svg>
