<svg width="56" height="56" viewBox="0 0 56 56" fill="none" xmlns="http://www.w3.org/2000/svg">
<g clip-path="url(#clip0_145_876)">
<path d="M55.9969 16.4019V39.5981L45.5261 23.0413L55.9969 16.4019Z" fill="#71624C"/>
<path d="M45.5261 23.0413L55.9969 39.598L38.8314 43.6467L45.5261 23.0413Z" fill="#544B30"/>
<path d="M55.9969 39.598L39.5959 56L38.8314 43.6467L55.9969 39.598Z" fill="#71624C"/>
<path d="M55.9969 16.4019L45.5261 23.0413L39.5959 0L55.9969 16.4019Z" fill="#716C54"/>
<path d="M39.5959 0L45.5261 23.0413L27.9985 10.3073L39.5959 0Z" fill="#544B30"/>
<path d="M45.5261 23.0413L38.8314 43.6467H27.9985H17.1655L10.4708 23.0413L27.9985 10.3073L45.5261 23.0413Z" fill="#71674B"/>
<path d="M38.8314 43.6467L39.5959 56L27.9985 43.6467H38.8314Z" fill="#544B30"/>
<path d="M27.9985 43.6467L39.5959 56H16.401L27.9985 43.6467Z" fill="#71624C"/>
<path d="M39.5959 0L27.9985 10.3073L16.401 0H39.5959Z" fill="#71624C"/>
<path d="M27.9985 43.6467L16.401 56L17.1655 43.6467H27.9985Z" fill="#544B30"/>
<path d="M27.9985 10.3073L10.4708 23.0413L16.401 0L27.9985 10.3073Z" fill="#544B30"/>
<path d="M10.4708 23.0413L17.1655 43.6467L0 39.598L10.4708 23.0413Z" fill="#544B30"/>
<path d="M17.1655 43.6467L16.401 56L0 39.598L17.1655 43.6467Z" fill="#71624C"/>
<path d="M16.401 0L10.4708 23.0413L0 16.4019L16.401 0Z" fill="#71624C"/>
<path d="M10.4708 23.0413L0 39.5981V16.4019L10.4708 23.0413Z" fill="#716C54"/>
<path d="M45.5261 23.0413L56 39.5981V16.4019L45.5261 23.0413Z" fill="#FFB850"/>
<path d="M15.132 43.1669L17.0789 45.1139L17.1686 43.6467L15.132 43.1669Z" fill="#FFB850"/>
<path d="M11.5634 16.402V18.8039L12.396 15.5724L11.5634 16.402Z" fill="#FFB850"/>
<path d="M17.1686 43.6467L17.0789 45.1138L22.0032 50.0384L28.0016 43.6467H17.1686Z" fill="#E2B730"/>
<path d="M39.5618 0H27.9737L22.5294 5.44462L28.0015 10.3073L39.599 0H27.9768H27.9737H39.5618Z" fill="#FFB850"/>
<path d="M45.5261 23.0413L39.599 0L28.0016 10.3073L45.5261 23.0413Z" fill="#E2B730"/>
<path d="M22.5294 5.44461L18.546 9.43134L18.5429 9.42515L12.396 15.5724L11.5634 18.8039V22.2489L28.0016 10.3073L22.5294 5.44461Z" fill="#E2B730"/>
<path d="M56 16.4019L39.599 0L45.5261 23.0413L56 16.4019Z" fill="#FFE161"/>
<path d="M39.599 56L56 39.598L38.8314 43.6467L39.599 56Z" fill="#FFB850"/>
<path d="M11.5634 26.3997V39.598L15.132 43.1669L17.1686 43.6467L11.5634 26.3997Z" fill="#E2B730"/>
<path d="M38.8314 43.6467L56 39.598L45.5261 23.0413L38.8314 43.6467Z" fill="#E2B730"/>
<path d="M22.0032 50.0384L27.9644 56H39.599L28.0015 43.6467L22.0032 50.0384Z" fill="#FFB850"/>
<path d="M28.0016 43.6467L39.599 56L38.8314 43.6467H28.0016Z" fill="#E2B730"/>
<path d="M28.0016 43.6467H38.8314L45.5261 23.0413L28.0016 10.3073L11.5634 22.2489V26.3997L17.1686 43.6467H28.0016Z" fill="#FFD04D"/>
<path d="M27.9644 0L22.5263 5.44152L22.5294 5.44462L27.9737 0H27.9644Z" fill="#FFB850"/>
<path d="M22.5294 5.44462L22.5263 5.44153L18.5429 9.42517L18.546 9.43136L22.5294 5.44462Z" fill="#FFB850"/>
</g>
<defs>
<clipPath id="clip0_145_876">
<rect width="56" height="56" fill="white"/>
</clipPath>
</defs>
</svg>
