<svg width="63" height="63" viewBox="0 0 63 63" fill="none" xmlns="http://www.w3.org/2000/svg">
<path d="M62.9999 18.4523V44.5479L51.2196 25.9216L62.9999 18.4523Z" fill="#FFB850"/>
<path d="M51.2197 25.9214L63 44.5477L43.6877 49.1024L51.2197 25.9214Z" fill="#E2B730"/>
<path d="M63 44.5477L44.5478 62.9999L43.6877 49.1024L63 44.5477Z" fill="#FFB850"/>
<path d="M62.9999 18.4522L51.2196 25.9215L44.5477 0L62.9999 18.4522Z" fill="#FFE161"/>
<path d="M44.5478 0L51.2197 25.9215L31.5 11.5957L44.5478 0Z" fill="#E2B730"/>
<path d="M51.2198 25.9215L43.6878 49.1025H31.5001H19.3124L11.7804 25.9215L31.5001 11.5957L51.2198 25.9215Z" fill="#FFD04D"/>
<path d="M43.6877 49.1025L44.5478 63L31.5 49.1025H43.6877Z" fill="#E2B730"/>
<path d="M31.5001 49.1025L44.5479 63H18.4523L31.5001 49.1025Z" fill="#FFB850"/>
<path d="M44.5479 0L31.5001 11.5957L18.4523 0H44.5479Z" fill="#FFB850"/>
<path d="M31.5001 49.1025L18.4523 63L19.3124 49.1025H31.5001Z" fill="#E2B730"/>
<path d="M31.5001 11.5957L11.7804 25.9215L18.4523 0L31.5001 11.5957Z" fill="#E2B730"/>
<path d="M11.7803 25.9214L19.3123 49.1024L0 44.5477L11.7803 25.9214Z" fill="#E2B730"/>
<path d="M19.3123 49.1024L18.4522 62.9999L0 44.5477L19.3123 49.1024Z" fill="#FFB850"/>
<path d="M18.4522 0L11.7803 25.9215L0 18.4522L18.4522 0Z" fill="#FFB850"/>
<path d="M11.7803 25.9216L0 44.5479V18.4523L11.7803 25.9216Z" fill="#FFE161"/>
</svg>
